<?xml version="1.0" encoding="UTF-8"?>
<svg id="_Слой_2" data-name="Слой 2" xmlns="http://www.w3.org/2000/svg" viewBox="0 0 240.38 47.62">
  <defs>
    <style>
      .cls-1 {
        fill: #ff0340;
      }
    </style>
  </defs>
  <g id="_Слой_1-2" data-name="Слой 1">
    <g>
      <path class="cls-1" d="m43.46,43.26c-2.94,1.54-6.02,2.65-9.22,3.33s-6.46,1.02-9.79,1.02c-3.54,0-6.81-.55-9.79-1.66s-5.57-2.7-7.74-4.77c-2.18-2.07-3.87-4.58-5.09-7.52-1.22-2.94-1.82-6.23-1.82-9.86s.61-6.91,1.82-9.86c1.22-2.94,2.91-5.45,5.09-7.52,2.18-2.07,4.76-3.66,7.74-4.77,2.99-1.11,6.25-1.66,9.79-1.66s6.96.44,10.02,1.31c3.05.88,5.73,2.38,8.03,4.51l-7.04,7.68c-1.37-1.41-2.9-2.47-4.61-3.2-1.71-.72-3.84-1.09-6.4-1.09-2.13,0-4.06.36-5.79,1.09-1.73.73-3.21,1.74-4.45,3.04-1.24,1.3-2.19,2.85-2.85,4.64-.66,1.79-.99,3.73-.99,5.82s.33,4.09.99,5.86c.66,1.77,1.61,3.31,2.85,4.61,1.24,1.3,2.72,2.31,4.45,3.04,1.73.73,3.66,1.09,5.79,1.09s4.05-.25,5.63-.74c1.58-.49,2.84-.99,3.78-1.5v-7.36h-8.13v-9.22h17.73v23.68Z"/>
      <path class="cls-1" d="m52.61,1.15h30.78v9.22h-20.8v8.45h19.65v9.22h-19.65v9.22h21.95v9.21h-31.94V1.15Z"/>
      <path class="cls-1" d="m92.54,1.15h13.57l19.26,31.49h.13V1.15h9.98v45.31h-13.06l-19.78-32.26h-.13v32.26h-9.98V1.15Z"/>
      <path class="cls-1" d="m182.91,28.99c0,2.69-.41,5.16-1.22,7.42s-2.02,4.22-3.62,5.89c-1.6,1.66-3.6,2.97-5.98,3.9-2.39.94-5.14,1.41-8.26,1.41s-5.93-.47-8.32-1.41-4.38-2.24-5.98-3.9c-1.6-1.66-2.81-3.62-3.62-5.89-.81-2.26-1.22-4.74-1.22-7.42V1.15h9.98v27.46c0,1.41.22,2.71.67,3.9.45,1.2,1.08,2.23,1.89,3.1.81.88,1.78,1.56,2.91,2.05,1.13.49,2.36.74,3.68.74s2.54-.25,3.65-.74c1.11-.49,2.07-1.17,2.88-2.05.81-.87,1.44-1.91,1.89-3.1.45-1.19.67-2.5.67-3.9V1.15h9.98v27.84Z"/>
      <path class="cls-1" d="m192,1.15h9.98v45.31h-9.98V1.15Z"/>
      <path class="cls-1" d="m233.47,12.22c-.81-1.02-1.91-1.78-3.3-2.27-1.39-.49-2.7-.74-3.94-.74-.73,0-1.47.09-2.24.26-.77.17-1.49.44-2.18.8-.68.36-1.24.84-1.66,1.44-.43.6-.64,1.32-.64,2.18,0,1.37.51,2.41,1.54,3.14,1.02.73,2.31,1.34,3.87,1.86s3.23,1.02,5.02,1.54c1.79.51,3.47,1.24,5.02,2.18,1.56.94,2.85,2.2,3.87,3.78,1.02,1.58,1.54,3.69,1.54,6.34s-.47,4.71-1.41,6.59c-.94,1.88-2.21,3.44-3.81,4.67-1.6,1.24-3.46,2.16-5.57,2.75-2.11.6-4.34.9-6.69.9-2.94,0-5.67-.45-8.19-1.34s-4.86-2.35-7.04-4.35l7.1-7.81c1.02,1.37,2.31,2.42,3.87,3.17,1.56.75,3.17,1.12,4.83,1.12.81,0,1.63-.1,2.46-.29s1.58-.48,2.24-.86c.66-.38,1.19-.88,1.6-1.47.41-.6.61-1.3.61-2.11,0-1.37-.52-2.44-1.57-3.23-1.05-.79-2.36-1.46-3.94-2.02-1.58-.55-3.29-1.11-5.12-1.66-1.83-.55-3.54-1.3-5.12-2.24-1.58-.94-2.89-2.18-3.94-3.71-1.05-1.54-1.57-3.56-1.57-6.08s.48-4.56,1.44-6.4c.96-1.83,2.24-3.37,3.84-4.61,1.6-1.24,3.45-2.17,5.54-2.78,2.09-.62,4.25-.93,6.46-.93,2.56,0,5.03.36,7.42,1.09,2.39.73,4.54,1.94,6.46,3.65l-6.85,7.49Z"/>
    </g>
  </g>
</svg>