<?xml version="1.0" encoding="utf-8"?>
<!-- Generator: Adobe Illustrator 27.2.0, SVG Export Plug-In . SVG Version: 6.00 Build 0)  -->
<svg version="1.1" id="Layer_1" xmlns="http://www.w3.org/2000/svg" xmlns:xlink="http://www.w3.org/1999/xlink" x="0px" y="0px"
	 viewBox="0 0 512 512" style="enable-background:new 0 0 512 512;" xml:space="preserve">
<style type="text/css">
	.st0{fill:#FF0340;}
</style>
<path class="st0" d="M268.1,512H186l42.7-170.7h-88.2c-30.2,0-54.6-24.5-54.6-54.7c0-5.3,0.8-10.6,2.3-15.7L170.2,0h202l-64,170.7
	h85.8c29.8,0,54,24.2,54,54.1c0,10.6-3.1,21-9,29.8L268.1,512z M240.7,469.3h4.5L403.4,231c3.5-5.2,2-12.3-3.2-15.7
	c-1.9-1.2-4-1.9-6.3-1.9H246.5l64-170.7H201.8L129,283.2c-1.9,6.3,1.6,13,8,14.9c1.1,0.3,2.3,0.5,3.5,0.5h142.9L240.7,469.3z"/>
</svg>
