<?xml version="1.0" encoding="utf-8"?>
<!-- Generator: Adobe Illustrator 27.2.0, SVG Export Plug-In . SVG Version: 6.00 Build 0)  -->
<svg version="1.1" id="Layer_1" xmlns="http://www.w3.org/2000/svg" xmlns:xlink="http://www.w3.org/1999/xlink" x="0px" y="0px"
	 viewBox="0 0 512 512" style="enable-background:new 0 0 512 512;" xml:space="preserve">
<style type="text/css">
	.st0{fill:#FF0340;}
</style>
<path class="st0" d="M58.7,320H0v-21.3c-0.7-61,32.8-117.2,86.7-145.7c26.1-12.8,54.3-20.7,83.2-23.3c-12.6,15.6-25.3,32.3-38,49.9
	C103.2,224,78.7,271,58.7,320z M332.4,380C288,408.7,241,433.2,192,453.3V512h21.3c61,0.7,117.2-32.8,145.7-86.7
	c12.8-26.1,20.7-54.3,23.3-83.2C366.7,354.7,350.1,367.3,332.4,380z M512,63.8c-2.8,92.9-69.7,185-204.4,281.6
	c-36.7,23.8-75.3,44.3-115.6,61.3v-12c-0.2-41.2-33.5-74.5-74.7-74.7h-12c17-40.2,37.6-78.9,61.4-115.6C263.1,69.9,355,3.1,447.7,0
	C494,0,512,18.9,512,63.8z M384,181.3c0-29.5-23.9-53.3-53.3-53.3s-53.3,23.9-53.3,53.3c0,29.5,23.9,53.3,53.3,53.3
	S384,210.8,384,181.3z M29.3,507.4c24-4.3,81.9-16.2,101.3-35.5l0,0c25-25,25-65.5,0-90.5c-25-25-65.5-25-90.5,0
	C20.8,400.7,8.8,458.7,4.6,482.7l-5.3,30L29.3,507.4z"/>
</svg>
