<?xml version="1.0" encoding="utf-8"?>
<!-- Generator: Adobe Illustrator 27.2.0, SVG Export Plug-In . SVG Version: 6.00 Build 0)  -->
<svg version="1.1" id="Слой_1" xmlns="http://www.w3.org/2000/svg" xmlns:xlink="http://www.w3.org/1999/xlink" x="0px" y="0px"
	 viewBox="0 0 512 512" style="enable-background:new 0 0 512 512;" xml:space="preserve">
<style type="text/css">
	.st0{fill:#FF0340;}
</style>
<g id="_01_align_center">
	<path class="st0" d="M277.3,128h-42.7c-23.6,0-42.7,19.1-42.7,42.7V512h128V170.7C320,147.1,300.9,128,277.3,128z"/>
	<path class="st0" d="M469.3,0h-42.7C403.1,0,384,19.1,384,42.7V512h128V42.7C512,19.1,492.9,0,469.3,0z M469.3,469.3h-42.7V42.7
		h42.7V469.3z"/>
	<path class="st0" d="M85.3,256H42.7C19.1,256,0,275.1,0,298.7V512h128V298.7C128,275.1,108.9,256,85.3,256z"/>
</g>
</svg>
